<?xml version="1.0" encoding="UTF-8"?>
<svg id="_레이어_2" data-name="레이어_2" xmlns="http://www.w3.org/2000/svg" viewBox="0 0 405.13 64.78">
  <defs>
    <style>
      .cls-1 {
        fill: #050101;
      }
    </style>
  </defs>
  <path class="cls-1" d="M75.29,64.78h-15.46l-12.81-43.82h-.28l-12.81,43.82h-15.55L0,0h16.84l10.24,43.09h.28L38.88,0h16.29l11.62,43.09h.28L77.5,0h16.29l-18.49,64.78Z"/>
  <path class="cls-1" d="M136.78,64.78v-27.08h-25.25v27.08h-15.64V0h15.64v24.52h25.25V0h15.64v64.78h-15.64Z"/>
  <path class="cls-1" d="M161.21,64.78V0h15.74v64.78h-15.74Z"/>
  <path class="cls-1" d="M234.86,19.95c0,3.78-.7,6.97-2.1,9.56-1.41,2.59-3.3,4.68-5.67,6.26-2.38,1.59-5.13,2.75-8.24,3.48-3.11.73-6.34,1.1-9.7,1.1h-7.78v24.42h-15.64V0h23.79c3.53,0,6.85.35,9.93,1.06,3.08.7,5.77,1.83,8.05,3.38,2.29,1.56,4.09,3.61,5.4,6.13,1.31,2.53,1.97,5.66,1.97,9.38ZM219.21,20.04c0-1.53-.31-2.78-.92-3.75-.61-.97-1.43-1.74-2.47-2.29-1.04-.54-2.21-.91-3.53-1.1-1.31-.18-2.66-.27-4.07-.27h-6.86v15.28h6.59c1.47,0,2.87-.12,4.22-.37,1.34-.24,2.54-.67,3.61-1.28,1.07-.61,1.91-1.42,2.52-2.43s.92-2.27.92-3.79Z"/>
  <path class="cls-1" d="M288.84,19.95c0,3.78-.7,6.97-2.1,9.56-1.41,2.59-3.3,4.68-5.67,6.26-2.38,1.59-5.13,2.75-8.24,3.48-3.11.73-6.34,1.1-9.7,1.1h-7.78v24.42h-15.64V0h23.79c3.53,0,6.85.35,9.93,1.06,3.08.7,5.77,1.83,8.05,3.38,2.29,1.56,4.09,3.61,5.4,6.13,1.31,2.53,1.97,5.66,1.97,9.38ZM273.2,20.04c0-1.53-.31-2.78-.92-3.75-.61-.97-1.43-1.74-2.47-2.29-1.04-.54-2.21-.91-3.53-1.1-1.31-.18-2.66-.27-4.07-.27h-6.86v15.28h6.59c1.47,0,2.87-.12,4.22-.37,1.34-.24,2.54-.67,3.61-1.28,1.07-.61,1.91-1.42,2.52-2.43s.92-2.27.92-3.79Z"/>
  <path class="cls-1" d="M293.69,64.78V0h43.55v13.17h-28.45v12.26h26.89v12.54h-26.89v13.44h30.1v13.36h-45.2Z"/>
  <path class="cls-1" d="M405.13,32.21c0,5.67-1.06,10.57-3.16,14.69-2.1,4.12-4.88,7.51-8.33,10.15-3.44,2.66-7.33,4.61-11.66,5.86-4.33,1.25-8.72,1.88-13.17,1.88h-24.16V0h23.42c4.57,0,9.09.54,13.54,1.6,4.45,1.07,8.41,2.83,11.89,5.31,3.48,2.47,6.29,5.78,8.42,9.93,2.13,4.14,3.2,9.27,3.2,15.37ZM388.84,32.21c0-3.66-.59-6.69-1.79-9.11-1.19-2.4-2.78-4.33-4.76-5.76-1.98-1.44-4.24-2.46-6.77-3.07-2.53-.61-5.14-.91-7.82-.91h-7.78v37.87h7.42c2.8,0,5.5-.32,8.1-.96,2.59-.64,4.87-1.7,6.86-3.16,1.98-1.46,3.57-3.41,4.76-5.86,1.19-2.44,1.79-5.46,1.79-9.06Z"/>
</svg>